<mxfile host="app.diagrams.net" modified="2023-09-14T00:03:29.194Z" agent="Mozilla/5.0 (Windows NT 10.0; Win64; x64) AppleWebKit/537.36 (KHTML, like Gecko) Chrome/116.0.0.0 Safari/537.36" etag="0371gVGP71hS_eciTozh" version="21.7.5" type="github">
  <diagram name="PÃ¡gina-1" id="B1q7fWzpPuNqtEEs8m-m">
    <mxGraphModel dx="1050" dy="574" grid="1" gridSize="10" guides="1" tooltips="1" connect="1" arrows="1" fold="1" page="1" pageScale="1" pageWidth="827" pageHeight="1169" math="0" shadow="0">
      <root>
        <mxCell id="0" />
        <mxCell id="1" parent="0" />
        <mxCell id="yMHAvFN0hmmpeHj6wc_O-12" value="" style="ellipse;whiteSpace=wrap;html=1;" vertex="1" parent="1">
          <mxGeometry y="115" width="120" height="80" as="geometry" />
        </mxCell>
        <mxCell id="yMHAvFN0hmmpeHj6wc_O-1" value="Soccer_players" style="rounded=0;whiteSpace=wrap;html=1;" vertex="1" parent="1">
          <mxGeometry x="160" y="125" width="120" height="60" as="geometry" />
        </mxCell>
        <mxCell id="yMHAvFN0hmmpeHj6wc_O-2" value="Clubs" style="rounded=0;whiteSpace=wrap;html=1;" vertex="1" parent="1">
          <mxGeometry x="610" y="185" width="120" height="60" as="geometry" />
        </mxCell>
        <mxCell id="yMHAvFN0hmmpeHj6wc_O-4" value="Users" style="rounded=0;whiteSpace=wrap;html=1;" vertex="1" parent="1">
          <mxGeometry x="580" y="460" width="120" height="60" as="geometry" />
        </mxCell>
        <mxCell id="yMHAvFN0hmmpeHj6wc_O-5" value="&lt;u&gt;Player_ID&lt;/u&gt;" style="ellipse;whiteSpace=wrap;html=1;" vertex="1" parent="1">
          <mxGeometry x="120" y="40" width="100" height="50" as="geometry" />
        </mxCell>
        <mxCell id="yMHAvFN0hmmpeHj6wc_O-6" value="Name" style="ellipse;whiteSpace=wrap;html=1;" vertex="1" parent="1">
          <mxGeometry x="260" y="40" width="90" height="60" as="geometry" />
        </mxCell>
        <mxCell id="yMHAvFN0hmmpeHj6wc_O-7" value="Birthdate" style="ellipse;whiteSpace=wrap;html=1;" vertex="1" parent="1">
          <mxGeometry x="320" y="115" width="100" height="50" as="geometry" />
        </mxCell>
        <mxCell id="yMHAvFN0hmmpeHj6wc_O-8" value="Value" style="ellipse;whiteSpace=wrap;html=1;" vertex="1" parent="1">
          <mxGeometry x="330" y="195" width="90" height="50" as="geometry" />
        </mxCell>
        <mxCell id="yMHAvFN0hmmpeHj6wc_O-9" value="Country" style="ellipse;whiteSpace=wrap;html=1;" vertex="1" parent="1">
          <mxGeometry x="210" y="215" width="80" height="40" as="geometry" />
        </mxCell>
        <mxCell id="yMHAvFN0hmmpeHj6wc_O-10" value="Age" style="ellipse;whiteSpace=wrap;html=1;dashed=1;" vertex="1" parent="1">
          <mxGeometry x="110" y="215" width="70" height="40" as="geometry" />
        </mxCell>
        <mxCell id="yMHAvFN0hmmpeHj6wc_O-11" value="Position(s)" style="ellipse;whiteSpace=wrap;html=1;" vertex="1" parent="1">
          <mxGeometry x="10" y="125" width="100" height="60" as="geometry" />
        </mxCell>
        <mxCell id="yMHAvFN0hmmpeHj6wc_O-13" value="" style="endArrow=none;html=1;rounded=0;" edge="1" parent="1" source="yMHAvFN0hmmpeHj6wc_O-9">
          <mxGeometry width="50" height="50" relative="1" as="geometry">
            <mxPoint x="170" y="235" as="sourcePoint" />
            <mxPoint x="220" y="185" as="targetPoint" />
          </mxGeometry>
        </mxCell>
        <mxCell id="yMHAvFN0hmmpeHj6wc_O-15" value="" style="endArrow=none;html=1;rounded=0;exitX=0.5;exitY=0;exitDx=0;exitDy=0;" edge="1" parent="1" source="yMHAvFN0hmmpeHj6wc_O-10">
          <mxGeometry width="50" height="50" relative="1" as="geometry">
            <mxPoint x="140" y="235" as="sourcePoint" />
            <mxPoint x="190" y="185" as="targetPoint" />
          </mxGeometry>
        </mxCell>
        <mxCell id="yMHAvFN0hmmpeHj6wc_O-16" value="" style="endArrow=none;html=1;rounded=0;exitX=1;exitY=0.5;exitDx=0;exitDy=0;" edge="1" parent="1" source="yMHAvFN0hmmpeHj6wc_O-12">
          <mxGeometry width="50" height="50" relative="1" as="geometry">
            <mxPoint x="130" y="155" as="sourcePoint" />
            <mxPoint x="160" y="155" as="targetPoint" />
          </mxGeometry>
        </mxCell>
        <mxCell id="yMHAvFN0hmmpeHj6wc_O-17" value="" style="endArrow=none;html=1;rounded=0;exitX=0.25;exitY=0;exitDx=0;exitDy=0;entryX=0.5;entryY=1;entryDx=0;entryDy=0;" edge="1" parent="1" source="yMHAvFN0hmmpeHj6wc_O-1" target="yMHAvFN0hmmpeHj6wc_O-5">
          <mxGeometry width="50" height="50" relative="1" as="geometry">
            <mxPoint x="-50" y="95" as="sourcePoint" />
            <mxPoint y="45" as="targetPoint" />
          </mxGeometry>
        </mxCell>
        <mxCell id="yMHAvFN0hmmpeHj6wc_O-18" value="" style="endArrow=none;html=1;rounded=0;" edge="1" parent="1">
          <mxGeometry width="50" height="50" relative="1" as="geometry">
            <mxPoint x="250" y="125" as="sourcePoint" />
            <mxPoint x="280" y="95" as="targetPoint" />
          </mxGeometry>
        </mxCell>
        <mxCell id="yMHAvFN0hmmpeHj6wc_O-19" value="" style="endArrow=none;html=1;rounded=0;exitX=1;exitY=0.5;exitDx=0;exitDy=0;entryX=0;entryY=0.5;entryDx=0;entryDy=0;" edge="1" parent="1" source="yMHAvFN0hmmpeHj6wc_O-1" target="yMHAvFN0hmmpeHj6wc_O-7">
          <mxGeometry width="50" height="50" relative="1" as="geometry">
            <mxPoint x="340" y="365" as="sourcePoint" />
            <mxPoint x="390" y="315" as="targetPoint" />
          </mxGeometry>
        </mxCell>
        <mxCell id="yMHAvFN0hmmpeHj6wc_O-20" value="" style="endArrow=none;html=1;rounded=0;" edge="1" parent="1" target="yMHAvFN0hmmpeHj6wc_O-8">
          <mxGeometry width="50" height="50" relative="1" as="geometry">
            <mxPoint x="280" y="185" as="sourcePoint" />
            <mxPoint x="330" y="135" as="targetPoint" />
          </mxGeometry>
        </mxCell>
        <mxCell id="yMHAvFN0hmmpeHj6wc_O-21" value="&lt;u&gt;Club_ID&lt;/u&gt;" style="ellipse;whiteSpace=wrap;html=1;" vertex="1" parent="1">
          <mxGeometry x="490" y="75" width="90" height="60" as="geometry" />
        </mxCell>
        <mxCell id="yMHAvFN0hmmpeHj6wc_O-22" value="Name" style="ellipse;whiteSpace=wrap;html=1;" vertex="1" parent="1">
          <mxGeometry x="600" y="75" width="100" height="60" as="geometry" />
        </mxCell>
        <mxCell id="yMHAvFN0hmmpeHj6wc_O-23" value="Country" style="ellipse;whiteSpace=wrap;html=1;" vertex="1" parent="1">
          <mxGeometry x="720" y="65" width="90" height="70" as="geometry" />
        </mxCell>
        <mxCell id="yMHAvFN0hmmpeHj6wc_O-24" value="" style="endArrow=none;html=1;rounded=0;exitX=0;exitY=0;exitDx=0;exitDy=0;entryX=0.5;entryY=1;entryDx=0;entryDy=0;" edge="1" parent="1" source="yMHAvFN0hmmpeHj6wc_O-2" target="yMHAvFN0hmmpeHj6wc_O-21">
          <mxGeometry width="50" height="50" relative="1" as="geometry">
            <mxPoint x="510" y="175" as="sourcePoint" />
            <mxPoint x="560" y="125" as="targetPoint" />
          </mxGeometry>
        </mxCell>
        <mxCell id="yMHAvFN0hmmpeHj6wc_O-25" value="" style="endArrow=none;html=1;rounded=0;entryX=0.5;entryY=1;entryDx=0;entryDy=0;" edge="1" parent="1" target="yMHAvFN0hmmpeHj6wc_O-22">
          <mxGeometry width="50" height="50" relative="1" as="geometry">
            <mxPoint x="660" y="185" as="sourcePoint" />
            <mxPoint x="710" y="135" as="targetPoint" />
          </mxGeometry>
        </mxCell>
        <mxCell id="yMHAvFN0hmmpeHj6wc_O-26" value="" style="endArrow=none;html=1;rounded=0;entryX=0.407;entryY=1.034;entryDx=0;entryDy=0;entryPerimeter=0;" edge="1" parent="1" target="yMHAvFN0hmmpeHj6wc_O-23">
          <mxGeometry width="50" height="50" relative="1" as="geometry">
            <mxPoint x="730" y="185" as="sourcePoint" />
            <mxPoint x="780" y="135" as="targetPoint" />
          </mxGeometry>
        </mxCell>
        <mxCell id="yMHAvFN0hmmpeHj6wc_O-27" value="Leagues" style="rounded=0;whiteSpace=wrap;html=1;" vertex="1" parent="1">
          <mxGeometry x="200" y="470" width="120" height="60" as="geometry" />
        </mxCell>
        <mxCell id="yMHAvFN0hmmpeHj6wc_O-28" value="&lt;u&gt;League_ID&lt;/u&gt;" style="ellipse;whiteSpace=wrap;html=1;" vertex="1" parent="1">
          <mxGeometry x="80" y="360" width="90" height="60" as="geometry" />
        </mxCell>
        <mxCell id="yMHAvFN0hmmpeHj6wc_O-29" value="Name" style="ellipse;whiteSpace=wrap;html=1;" vertex="1" parent="1">
          <mxGeometry x="190" y="360" width="100" height="60" as="geometry" />
        </mxCell>
        <mxCell id="yMHAvFN0hmmpeHj6wc_O-30" value="Country" style="ellipse;whiteSpace=wrap;html=1;" vertex="1" parent="1">
          <mxGeometry x="310" y="350" width="90" height="70" as="geometry" />
        </mxCell>
        <mxCell id="yMHAvFN0hmmpeHj6wc_O-31" value="" style="endArrow=none;html=1;rounded=0;exitX=0;exitY=0;exitDx=0;exitDy=0;entryX=0.5;entryY=1;entryDx=0;entryDy=0;" edge="1" source="yMHAvFN0hmmpeHj6wc_O-27" target="yMHAvFN0hmmpeHj6wc_O-28" parent="1">
          <mxGeometry width="50" height="50" relative="1" as="geometry">
            <mxPoint x="100" y="460" as="sourcePoint" />
            <mxPoint x="150" y="410" as="targetPoint" />
          </mxGeometry>
        </mxCell>
        <mxCell id="yMHAvFN0hmmpeHj6wc_O-32" value="" style="endArrow=none;html=1;rounded=0;entryX=0.5;entryY=1;entryDx=0;entryDy=0;" edge="1" target="yMHAvFN0hmmpeHj6wc_O-29" parent="1">
          <mxGeometry width="50" height="50" relative="1" as="geometry">
            <mxPoint x="250" y="470" as="sourcePoint" />
            <mxPoint x="300" y="420" as="targetPoint" />
          </mxGeometry>
        </mxCell>
        <mxCell id="yMHAvFN0hmmpeHj6wc_O-33" value="" style="endArrow=none;html=1;rounded=0;entryX=0.407;entryY=1.034;entryDx=0;entryDy=0;entryPerimeter=0;" edge="1" target="yMHAvFN0hmmpeHj6wc_O-30" parent="1">
          <mxGeometry width="50" height="50" relative="1" as="geometry">
            <mxPoint x="320" y="470" as="sourcePoint" />
            <mxPoint x="370" y="420" as="targetPoint" />
          </mxGeometry>
        </mxCell>
        <mxCell id="yMHAvFN0hmmpeHj6wc_O-34" value="&lt;u&gt;User_ID&lt;/u&gt;" style="ellipse;whiteSpace=wrap;html=1;" vertex="1" parent="1">
          <mxGeometry x="595" y="340" width="75" height="60" as="geometry" />
        </mxCell>
        <mxCell id="yMHAvFN0hmmpeHj6wc_O-35" value="Username" style="ellipse;whiteSpace=wrap;html=1;" vertex="1" parent="1">
          <mxGeometry x="700" y="345" width="90" height="55" as="geometry" />
        </mxCell>
        <mxCell id="yMHAvFN0hmmpeHj6wc_O-36" value="Pasword" style="ellipse;whiteSpace=wrap;html=1;" vertex="1" parent="1">
          <mxGeometry x="740" y="425" width="80" height="50" as="geometry" />
        </mxCell>
        <mxCell id="yMHAvFN0hmmpeHj6wc_O-37" value="" style="endArrow=none;html=1;rounded=0;" edge="1" parent="1">
          <mxGeometry width="50" height="50" relative="1" as="geometry">
            <mxPoint x="590" y="460" as="sourcePoint" />
            <mxPoint x="620" y="400" as="targetPoint" />
          </mxGeometry>
        </mxCell>
        <mxCell id="yMHAvFN0hmmpeHj6wc_O-38" value="" style="endArrow=none;html=1;rounded=0;entryX=0;entryY=1;entryDx=0;entryDy=0;" edge="1" parent="1" target="yMHAvFN0hmmpeHj6wc_O-35">
          <mxGeometry width="50" height="50" relative="1" as="geometry">
            <mxPoint x="690" y="460" as="sourcePoint" />
            <mxPoint x="740" y="410" as="targetPoint" />
          </mxGeometry>
        </mxCell>
        <mxCell id="yMHAvFN0hmmpeHj6wc_O-39" value="" style="endArrow=none;html=1;rounded=0;entryX=0.018;entryY=0.644;entryDx=0;entryDy=0;entryPerimeter=0;" edge="1" parent="1" target="yMHAvFN0hmmpeHj6wc_O-36">
          <mxGeometry width="50" height="50" relative="1" as="geometry">
            <mxPoint x="700" y="500" as="sourcePoint" />
            <mxPoint x="750" y="450" as="targetPoint" />
          </mxGeometry>
        </mxCell>
        <mxCell id="yMHAvFN0hmmpeHj6wc_O-40" value="Email" style="ellipse;whiteSpace=wrap;html=1;" vertex="1" parent="1">
          <mxGeometry x="460" y="410" width="90" height="50" as="geometry" />
        </mxCell>
        <mxCell id="yMHAvFN0hmmpeHj6wc_O-41" value="" style="endArrow=none;html=1;rounded=0;entryX=0;entryY=0.5;entryDx=0;entryDy=0;" edge="1" parent="1" source="yMHAvFN0hmmpeHj6wc_O-40" target="yMHAvFN0hmmpeHj6wc_O-4">
          <mxGeometry width="50" height="50" relative="1" as="geometry">
            <mxPoint x="490" y="520" as="sourcePoint" />
            <mxPoint x="540" y="470" as="targetPoint" />
          </mxGeometry>
        </mxCell>
        <mxCell id="yMHAvFN0hmmpeHj6wc_O-42" value="Soccer_players" style="rounded=0;whiteSpace=wrap;html=1;" vertex="1" parent="1">
          <mxGeometry x="100" y="810" width="120" height="60" as="geometry" />
        </mxCell>
        <mxCell id="yMHAvFN0hmmpeHj6wc_O-43" value="Clubs" style="rounded=0;whiteSpace=wrap;html=1;" vertex="1" parent="1">
          <mxGeometry x="100" y="1040" width="120" height="60" as="geometry" />
        </mxCell>
        <mxCell id="yMHAvFN0hmmpeHj6wc_O-44" value="Plays for" style="rhombus;whiteSpace=wrap;html=1;" vertex="1" parent="1">
          <mxGeometry x="120" y="910" width="80" height="80" as="geometry" />
        </mxCell>
        <mxCell id="yMHAvFN0hmmpeHj6wc_O-45" value="" style="endArrow=none;html=1;rounded=0;entryX=0.5;entryY=1;entryDx=0;entryDy=0;" edge="1" parent="1" target="yMHAvFN0hmmpeHj6wc_O-42">
          <mxGeometry width="50" height="50" relative="1" as="geometry">
            <mxPoint x="160" y="910" as="sourcePoint" />
            <mxPoint x="210" y="860" as="targetPoint" />
          </mxGeometry>
        </mxCell>
        <mxCell id="yMHAvFN0hmmpeHj6wc_O-46" value="" style="endArrow=none;html=1;rounded=0;exitX=0.5;exitY=0;exitDx=0;exitDy=0;" edge="1" parent="1" source="yMHAvFN0hmmpeHj6wc_O-43">
          <mxGeometry width="50" height="50" relative="1" as="geometry">
            <mxPoint x="110" y="1040" as="sourcePoint" />
            <mxPoint x="160" y="990" as="targetPoint" />
          </mxGeometry>
        </mxCell>
        <mxCell id="yMHAvFN0hmmpeHj6wc_O-47" value="1" style="text;html=1;strokeColor=none;fillColor=none;align=center;verticalAlign=middle;whiteSpace=wrap;rounded=0;" vertex="1" parent="1">
          <mxGeometry x="160" y="870" width="60" height="30" as="geometry" />
        </mxCell>
        <mxCell id="yMHAvFN0hmmpeHj6wc_O-48" value="1" style="text;html=1;strokeColor=none;fillColor=none;align=center;verticalAlign=middle;whiteSpace=wrap;rounded=0;" vertex="1" parent="1">
          <mxGeometry x="160" y="1000" width="60" height="30" as="geometry" />
        </mxCell>
        <mxCell id="yMHAvFN0hmmpeHj6wc_O-49" value="N" style="text;html=1;strokeColor=none;fillColor=none;align=center;verticalAlign=middle;whiteSpace=wrap;rounded=0;" vertex="1" parent="1">
          <mxGeometry x="100" y="870" width="60" height="30" as="geometry" />
        </mxCell>
        <mxCell id="yMHAvFN0hmmpeHj6wc_O-50" value="1" style="text;html=1;strokeColor=none;fillColor=none;align=center;verticalAlign=middle;whiteSpace=wrap;rounded=0;" vertex="1" parent="1">
          <mxGeometry x="95" y="1000" width="60" height="30" as="geometry" />
        </mxCell>
        <mxCell id="yMHAvFN0hmmpeHj6wc_O-51" value="N : 1" style="text;html=1;strokeColor=none;fillColor=none;align=center;verticalAlign=middle;whiteSpace=wrap;rounded=0;" vertex="1" parent="1">
          <mxGeometry x="210" y="935" width="60" height="30" as="geometry" />
        </mxCell>
        <mxCell id="yMHAvFN0hmmpeHj6wc_O-52" value="Positions" style="rounded=0;whiteSpace=wrap;html=1;" vertex="1" parent="1">
          <mxGeometry x="480" y="810" width="120" height="60" as="geometry" />
        </mxCell>
        <mxCell id="yMHAvFN0hmmpeHj6wc_O-53" value="Have" style="rhombus;whiteSpace=wrap;html=1;" vertex="1" parent="1">
          <mxGeometry x="320" y="805" width="70" height="70" as="geometry" />
        </mxCell>
        <mxCell id="yMHAvFN0hmmpeHj6wc_O-54" value="" style="endArrow=none;html=1;rounded=0;entryX=0;entryY=0.5;entryDx=0;entryDy=0;" edge="1" parent="1" target="yMHAvFN0hmmpeHj6wc_O-53">
          <mxGeometry width="50" height="50" relative="1" as="geometry">
            <mxPoint x="220" y="840" as="sourcePoint" />
            <mxPoint x="270" y="790" as="targetPoint" />
          </mxGeometry>
        </mxCell>
        <mxCell id="yMHAvFN0hmmpeHj6wc_O-55" value="" style="endArrow=none;html=1;rounded=0;entryX=0;entryY=0.5;entryDx=0;entryDy=0;exitX=1;exitY=0.5;exitDx=0;exitDy=0;" edge="1" parent="1" source="yMHAvFN0hmmpeHj6wc_O-53" target="yMHAvFN0hmmpeHj6wc_O-52">
          <mxGeometry width="50" height="50" relative="1" as="geometry">
            <mxPoint x="380" y="850" as="sourcePoint" />
            <mxPoint x="430" y="800" as="targetPoint" />
          </mxGeometry>
        </mxCell>
        <mxCell id="yMHAvFN0hmmpeHj6wc_O-56" value="1" style="text;html=1;strokeColor=none;fillColor=none;align=center;verticalAlign=middle;whiteSpace=wrap;rounded=0;" vertex="1" parent="1">
          <mxGeometry x="210" y="805" width="60" height="30" as="geometry" />
        </mxCell>
        <mxCell id="yMHAvFN0hmmpeHj6wc_O-57" value="N" style="text;html=1;strokeColor=none;fillColor=none;align=center;verticalAlign=middle;whiteSpace=wrap;rounded=0;" vertex="1" parent="1">
          <mxGeometry x="414" y="805" width="60" height="30" as="geometry" />
        </mxCell>
        <mxCell id="yMHAvFN0hmmpeHj6wc_O-58" value="N" style="text;html=1;strokeColor=none;fillColor=none;align=center;verticalAlign=middle;whiteSpace=wrap;rounded=0;" vertex="1" parent="1">
          <mxGeometry x="220" y="845" width="60" height="30" as="geometry" />
        </mxCell>
        <mxCell id="yMHAvFN0hmmpeHj6wc_O-59" value="1" style="text;html=1;strokeColor=none;fillColor=none;align=center;verticalAlign=middle;whiteSpace=wrap;rounded=0;" vertex="1" parent="1">
          <mxGeometry x="414" y="850" width="60" height="30" as="geometry" />
        </mxCell>
        <mxCell id="yMHAvFN0hmmpeHj6wc_O-60" value="N : N" style="text;html=1;strokeColor=none;fillColor=none;align=center;verticalAlign=middle;whiteSpace=wrap;rounded=0;" vertex="1" parent="1">
          <mxGeometry x="325" y="770" width="60" height="30" as="geometry" />
        </mxCell>
        <mxCell id="yMHAvFN0hmmpeHj6wc_O-61" value="Leagues" style="rounded=0;whiteSpace=wrap;html=1;" vertex="1" parent="1">
          <mxGeometry x="480" y="1040" width="120" height="60" as="geometry" />
        </mxCell>
        <mxCell id="yMHAvFN0hmmpeHj6wc_O-62" value="Belong to" style="rhombus;whiteSpace=wrap;html=1;" vertex="1" parent="1">
          <mxGeometry x="320" y="1035" width="65" height="70" as="geometry" />
        </mxCell>
        <mxCell id="yMHAvFN0hmmpeHj6wc_O-63" value="1" style="text;html=1;strokeColor=none;fillColor=none;align=center;verticalAlign=middle;whiteSpace=wrap;rounded=0;" vertex="1" parent="1">
          <mxGeometry x="210" y="1040" width="60" height="30" as="geometry" />
        </mxCell>
        <mxCell id="yMHAvFN0hmmpeHj6wc_O-64" value="1" style="text;html=1;strokeColor=none;fillColor=none;align=center;verticalAlign=middle;whiteSpace=wrap;rounded=0;" vertex="1" parent="1">
          <mxGeometry x="430" y="1035" width="60" height="30" as="geometry" />
        </mxCell>
        <mxCell id="yMHAvFN0hmmpeHj6wc_O-65" value="" style="endArrow=none;html=1;rounded=0;entryX=0;entryY=0.5;entryDx=0;entryDy=0;exitX=1;exitY=0.5;exitDx=0;exitDy=0;" edge="1" parent="1" source="yMHAvFN0hmmpeHj6wc_O-43" target="yMHAvFN0hmmpeHj6wc_O-62">
          <mxGeometry width="50" height="50" relative="1" as="geometry">
            <mxPoint x="230" y="1090" as="sourcePoint" />
            <mxPoint x="280" y="1040" as="targetPoint" />
          </mxGeometry>
        </mxCell>
        <mxCell id="yMHAvFN0hmmpeHj6wc_O-66" value="" style="endArrow=none;html=1;rounded=0;entryX=0;entryY=0.5;entryDx=0;entryDy=0;exitX=1;exitY=0.5;exitDx=0;exitDy=0;" edge="1" parent="1" source="yMHAvFN0hmmpeHj6wc_O-62" target="yMHAvFN0hmmpeHj6wc_O-61">
          <mxGeometry width="50" height="50" relative="1" as="geometry">
            <mxPoint x="390" y="1070" as="sourcePoint" />
            <mxPoint x="430" y="1020" as="targetPoint" />
          </mxGeometry>
        </mxCell>
        <mxCell id="yMHAvFN0hmmpeHj6wc_O-67" value="1" style="text;html=1;strokeColor=none;fillColor=none;align=center;verticalAlign=middle;whiteSpace=wrap;rounded=0;" vertex="1" parent="1">
          <mxGeometry x="420" y="1075" width="60" height="30" as="geometry" />
        </mxCell>
        <mxCell id="yMHAvFN0hmmpeHj6wc_O-68" value="N" style="text;html=1;strokeColor=none;fillColor=none;align=center;verticalAlign=middle;whiteSpace=wrap;rounded=0;" vertex="1" parent="1">
          <mxGeometry x="200" y="1075" width="60" height="30" as="geometry" />
        </mxCell>
        <mxCell id="yMHAvFN0hmmpeHj6wc_O-69" value="N : 1" style="text;html=1;strokeColor=none;fillColor=none;align=center;verticalAlign=middle;whiteSpace=wrap;rounded=0;" vertex="1" parent="1">
          <mxGeometry x="320" y="1005" width="60" height="30" as="geometry" />
        </mxCell>
        <mxCell id="yMHAvFN0hmmpeHj6wc_O-70" value="Users" style="rounded=0;whiteSpace=wrap;html=1;" vertex="1" parent="1">
          <mxGeometry x="595" y="920" width="120" height="60" as="geometry" />
        </mxCell>
      </root>
    </mxGraphModel>
  </diagram>
</mxfile>
